HIERARCHY
ROOT Hips
{
	OFFSET -0.001795 -0.223333 0.028219
	CHANNELS 6 Xposition Yposition Zposition Zrotation Yrotation Xrotation 
	JOINT LeftUpLeg
	{
		OFFSET 0.069520 -0.091406 -0.006815
		CHANNELS 3 Zrotation Yrotation Xrotation
		JOINT LeftLeg
		{
			OFFSET 0.034277 -0.375199 -0.004496
			CHANNELS 3 Zrotation Yrotation Xrotation
			JOINT LeftFoot
			{
				OFFSET -0.013596 -0.397961 -0.043693
				CHANNELS 3 Zrotation Yrotation Xrotation
				JOINT LeftToe
				{
					OFFSET 0.026358 -0.055791 0.119288
					CHANNELS 3 Zrotation Yrotation Xrotation
					End Site
					{
						OFFSET 0.000000 0.000000 0.000000
					}
				}
			}
		}
	}
	JOINT RightUpLeg
	{
		OFFSET -0.067670 -0.090522 -0.004320
		CHANNELS 3 Zrotation Yrotation Xrotation
		JOINT RightLeg
		{
			OFFSET -0.038290 -0.382569 -0.008850
			CHANNELS 3 Zrotation Yrotation Xrotation
			JOINT RightFoot
			{
				OFFSET 0.015774 -0.398415 -0.042312
				CHANNELS 3 Zrotation Yrotation Xrotation
				JOINT RightToe
				{
					OFFSET -0.025372 -0.048144 0.123348
					CHANNELS 3 Zrotation Yrotation Xrotation
					End Site
					{
						OFFSET 0.000000 0.000000 0.000000
					}
				}
			}
		}
	}
	JOINT Spine
	{
		OFFSET -0.002533 0.108963 -0.026696
		CHANNELS 3 Zrotation Yrotation Xrotation
		JOINT Spine1
		{
			OFFSET 0.005487 0.135180 0.001092
			CHANNELS 3 Zrotation Yrotation Xrotation
			JOINT Spine2
			{
				OFFSET 0.001457 0.052922 0.025425
				CHANNELS 3 Zrotation Yrotation Xrotation
				JOINT Neck
				{
					OFFSET -0.002778 0.213870 -0.042857
					CHANNELS 3 Zrotation Yrotation Xrotation
					JOINT Head
					{
						OFFSET 0.005152 0.064970 0.051349
						CHANNELS 3 Zrotation Yrotation Xrotation
						End Site
						{
							OFFSET 0.000000 0.000000 0.000000
						}
					}
				}
				JOINT LeftShoulder
				{
					OFFSET 0.078845 0.121749 -0.034090
					CHANNELS 3 Zrotation Yrotation Xrotation
					JOINT LeftArm
					{
						OFFSET 0.090977 0.030469 -0.008868
						CHANNELS 3 Zrotation Yrotation Xrotation
						JOINT LeftForeArm
						{
							OFFSET 0.259612 -0.012772 -0.027456
							CHANNELS 3 Zrotation Yrotation Xrotation
							JOINT LeftHand
							{
								OFFSET 0.249234 0.008986 -0.001171
								CHANNELS 3 Zrotation Yrotation Xrotation
								End Site
								{
									OFFSET 0.000000 0.000000 0.000000
								}
							}
						}
					}
				}
				JOINT RightShoulder
				{
					OFFSET -0.081759 0.118833 -0.038615
					CHANNELS 3 Zrotation Yrotation Xrotation
					JOINT RightArm
					{
						OFFSET -0.096012 0.032551 -0.009143
						CHANNELS 3 Zrotation Yrotation Xrotation
						JOINT RightForeArm
						{
							OFFSET -0.253742 -0.013329 -0.021401
							CHANNELS 3 Zrotation Yrotation Xrotation
							JOINT RightHand
							{
								OFFSET -0.255298 0.007772 -0.005559
								CHANNELS 3 Zrotation Yrotation Xrotation
								End Site
								{
									OFFSET 0.000000 0.000000 0.000000
								}
							}
						}
					}
				}
			}
		}
	}
}
MOTION
Frames: 13
Frame Time: 0.050000
0.000000 0.928334 0.000000 -2.085865 -6.263683 6.703058 8.580881 -0.252417 -13.509291 -2.896213 0.347093 6.755649 8.706129 17.991258 11.010574 0.000000 0.000000 0.000000 -9.042215 0.933502 -15.883753 7.136016 -0.762529 8.455107 -6.364497 -17.613218 13.387703 0.000000 0.000000 0.000000 2.970150 -1.328033 22.276603 -6.248567 2.199318 -15.769829 -1.810166 6.678069 24.504648 13.868393 -6.530339 -23.057114 0.000000 0.000000 0.000000 -5.850996 -24.476139 9.318571 -21.063303 -41.731226 1.968253 77.740616 -70.980565 -55.850256 0.000000 0.000000 0.000000 13.353973 13.230247 6.378377 17.635383 37.135495 0.832285 -48.329726 33.130811 -12.192112 0.000000 0.000000 0.000000 
-0.000299 0.927628 0.000335 -2.404804 -6.657915 6.948945 8.751601 -0.227404 -13.512155 -2.567160 0.291807 6.583681 8.959617 18.379484 10.847292 0.000000 0.000000 0.000000 -8.573954 0.995302 -16.042582 6.564068 -0.654472 7.415482 -6.133174 -17.452198 15.039010 0.000000 0.000000 0.000000 2.777904 -1.280483 22.517569 -5.224039 1.866656 -15.988598 -2.314835 7.817245 25.516615 15.984915 -7.652150 -23.595251 0.000000 0.000000 0.000000 -6.742819 -23.937500 9.152079 -19.761166 -43.199209 1.644216 85.295279 -72.099257 -63.733778 0.000000 0.000000 0.000000 12.904870 11.602395 5.720664 15.818852 39.292348 0.567708 -46.665427 28.999512 -9.875239 0.000000 0.000000 0.000000 
-0.000315 0.925570 0.000487 -2.563532 -7.154054 7.040681 9.500267 -0.108975 -14.963206 -3.594107 0.524839 9.256965 9.302491 18.908583 10.330914 0.000000 0.000000 0.000000 -8.586078 1.059084 -17.082223 6.858310 -0.698331 8.965109 -6.054451 -17.322200 14.404321 0.000000 0.000000 0.000000 3.324319 -1.396203 22.740407 -4.633949 1.673701 -15.553756 -3.702504 9.585270 25.349510 17.570420 -8.579104 -22.963011 0.000000 0.000000 0.000000 -7.669605 -25.437717 9.680247 -19.219703 -42.605340 1.406073 84.328843 -72.070207 -63.424595 0.000000 0.000000 0.000000 14.061650 11.776834 6.268145 11.200976 39.821382 -0.557994 -46.845006 25.747142 -8.566718 0.000000 0.000000 0.000000 
-0.000534 0.925294 0.000832 -2.669921 -7.998313 6.900727 9.783567 -0.038410 -14.953377 -3.931341 0.628779 9.936622 9.709415 19.509714 10.474409 0.000000 0.000000 0.000000 -8.593362 1.104450 -17.487826 7.094614 -0.719231 9.736291 -5.691550 -16.775221 14.178020 0.000000 0.000000 0.000000 3.569828 -1.428545 23.236838 -5.695789 2.012009 -14.986652 -3.989298 9.542874 25.558470 18.037239 -9.040830 -22.714839 0.000000 0.000000 0.000000 -7.213866 -25.691840 9.777008 -19.374829 -42.050995 1.399588 87.865953 -72.504084 -66.979641 0.000000 0.000000 0.000000 14.178931 10.763419 5.680829 8.877617 40.603836 -1.137519 -46.398798 23.321420 -7.618329 0.000000 0.000000 0.000000 
-0.000844 0.923835 0.001391 -2.666863 -8.905440 6.747002 9.775679 0.009132 -15.295880 -3.961593 0.693825 11.309853 10.196004 20.247658 10.342153 0.000000 0.000000 0.000000 -8.633573 1.151182 -17.896496 7.186214 -0.711991 10.544679 -5.373870 -16.242112 13.520586 0.000000 0.000000 0.000000 3.470110 -1.394158 24.336346 -5.773710 1.997544 -15.646174 -4.319792 9.761906 26.026581 17.856382 -8.904517 -22.986147 0.000000 0.000000 0.000000 -7.227713 -26.050205 9.956394 -19.322521 -41.015346 1.266656 90.648254 -71.494598 -68.572149 0.000000 0.000000 0.000000 14.357077 11.350775 5.948859 6.148926 39.975552 -1.840992 -46.259599 22.468746 -7.424171 0.000000 0.000000 0.000000 
-0.001248 0.923849 0.001923 -2.669587 -9.189345 7.046860 9.549644 -0.015420 -15.586671 -3.541956 0.606667 11.439584 10.367128 20.497271 10.519774 0.000000 0.000000 0.000000 -8.655466 1.178181 -18.150092 7.239465 -0.711711 10.382584 -5.267170 -16.088312 13.490590 0.000000 0.000000 0.000000 3.576687 -1.418207 24.632062 -6.028173 2.061738 -15.916892 -4.473521 9.624767 26.314881 18.013690 -9.002866 -23.201942 0.000000 0.000000 0.000000 -7.231400 -26.636691 10.248554 -19.004440 -40.350983 1.113231 92.559860 -70.732975 -69.514746 0.000000 0.000000 0.000000 14.481257 11.504869 6.003403 3.104336 39.181652 -2.577218 -45.700326 22.486397 -7.484261 0.000000 0.000000 0.000000 
-0.001613 0.924010 0.002465 -2.679105 -9.590091 7.302736 9.558822 0.000439 -15.687220 -3.539410 0.615944 11.360075 10.574430 20.785992 10.755409 0.000000 0.000000 0.000000 -8.477857 1.228160 -18.405830 6.953014 -0.649907 10.294639 -5.091790 -15.830350 13.423474 0.000000 0.000000 0.000000 3.685308 -1.435530 25.025164 -6.020611 2.036149 -16.331807 -4.800880 9.312880 26.523938 17.956080 -8.919675 -23.633097 0.000000 0.000000 0.000000 -7.137520 -26.429937 10.228650 -19.056433 -39.800661 1.071892 95.513462 -69.810967 -71.180585 0.000000 0.000000 0.000000 13.787955 11.620416 5.879251 1.354138 39.062639 -2.994492 -44.551660 22.400555 -7.340963 0.000000 0.000000 0.000000 
-0.001986 0.924841 0.002798 -2.690901 -9.956639 7.800700 9.607586 0.015551 -15.877139 -3.592945 0.627197 10.919051 10.756500 21.009814 11.243623 0.000000 0.000000 0.000000 -8.266184 1.299976 -18.926238 6.589698 -0.578512 10.185536 -4.907412 -15.607131 13.629138 0.000000 0.000000 0.000000 3.989001 -1.492803 24.899238 -6.197598 2.081565 -16.218854 -5.124288 9.066961 26.468175 18.430235 -9.200330 -23.898718 0.000000 0.000000 0.000000 -7.147398 -26.512727 10.339038 -18.591968 -39.408203 0.930371 97.421063 -68.525015 -71.516103 0.000000 0.000000 0.000000 13.441531 11.656428 5.776987 -0.479674 39.007764 -3.444092 -42.743620 22.663027 -7.185628 0.000000 0.000000 0.000000 
-0.002291 0.925631 0.002961 -2.802166 -10.416654 8.190456 9.605318 0.029667 -15.932242 -3.388796 0.582851 10.513652 10.991954 21.306502 11.708192 0.000000 0.000000 0.000000 -8.012423 1.369682 -19.275404 6.346523 -0.525679 9.959871 -4.661265 -15.289132 13.835551 0.000000 0.000000 0.000000 4.169505 -1.523288 25.157903 -6.172556 2.049243 -16.631380 -5.308914 8.883076 26.567563 18.656205 -9.127619 -24.850037 0.000000 0.000000 0.000000 -6.836684 -26.537749 10.362238 -18.450442 -39.491907 0.915570 98.202768 -66.784294 -70.277840 0.000000 0.000000 0.000000 12.861034 11.926315 5.763481 -1.969138 38.965911 -3.809334 -40.524052 22.633508 -6.816206 0.000000 0.000000 0.000000 
-0.002546 0.926248 0.003052 -2.838801 -11.033225 8.607412 9.631517 0.056405 -16.108798 -3.395038 0.594493 10.296949 11.308229 21.704755 12.221930 0.000000 0.000000 0.000000 -7.799527 1.445989 -19.666735 6.019210 -0.458463 9.684318 -4.353728 -14.872237 13.950014 0.000000 0.000000 0.000000 4.340753 -1.533888 25.136220 -6.267828 2.057470 -16.765386 -5.679246 8.655445 26.498001 18.972686 -9.193134 -25.505392 0.000000 0.000000 0.000000 -6.619542 -26.680330 10.462440 -18.174428 -39.699655 0.894718 97.777449 -65.474452 -68.307053 0.000000 0.000000 0.000000 12.483785 12.295254 5.802785 -3.360201 39.159623 -4.195136 -38.260054 22.414266 -6.369186 0.000000 0.000000 0.000000 
-0.002831 0.926534 0.003350 -2.794224 -11.159889 8.948759 9.609255 0.056877 -16.309945 -3.420632 0.597401 10.060823 11.383305 21.786130 12.445482 0.000000 0.000000 0.000000 -7.999900 1.466696 -20.085636 6.270771 -0.493308 9.726089 -4.315724 -14.857627 14.091620 0.000000 0.000000 0.000000 4.496834 -1.574668 25.275487 -6.483730 2.119636 -16.693567 -5.840033 8.394487 26.140190 19.550589 -9.433085 -25.913489 0.000000 0.000000 0.000000 -6.095806 -27.277160 10.642928 -17.932281 -40.349079 0.948393 95.589587 -64.508784 -65.182939 0.000000 0.000000 0.000000 12.382158 12.652772 5.910747 -4.770539 39.234604 -4.562560 -35.986236 22.188826 -5.898746 0.000000 0.000000 0.000000 
-0.003259 0.926549 0.004068 -2.810735 -11.408055 9.027145 9.645456 0.068277 -16.175063 -3.448832 0.605082 9.876381 11.514466 21.964317 12.532562 0.000000 0.000000 0.000000 -8.120069 1.481097 -20.298770 6.538226 -0.526699 9.953568 -4.227458 -14.731160 14.065656 0.000000 0.000000 0.000000 4.837463 -1.647177 25.280331 -6.557330 2.130756 -16.836285 -6.269695 8.270753 26.055813 20.058274 -9.650405 -26.345135 0.000000 0.000000 0.000000 -6.364537 -27.563810 10.847315 -17.729052 -40.794227 0.960449 93.799219 -64.270118 -63.236602 0.000000 0.000000 0.000000 12.625799 13.353176 6.224574 -6.166835 39.092528 -4.900313 -33.290475 21.733080 -5.308426 0.000000 0.000000 0.000000 
-0.003768 0.926543 0.005202 -2.719914 -11.500873 9.134612 9.653196 0.071053 -16.150850 -3.611229 0.641053 9.766252 11.563768 22.027931 12.589544 0.000000 0.000000 0.000000 -8.297218 1.474824 -20.365714 6.701225 -0.549045 9.936613 -4.213375 -14.702626 13.991332 0.000000 0.000000 0.000000 5.052020 -1.691184 25.118354 -6.640106 2.152214 -16.843044 -6.520008 8.098881 25.839988 20.317571 -9.722575 -26.620552 0.000000 0.000000 0.000000 -6.552558 -28.032891 11.109416 -17.815036 -41.109564 1.048289 91.578746 -64.860760 -61.766863 0.000000 0.000000 0.000000 12.439524 13.642414 6.299884 -7.002989 39.415984 -5.168208 -30.552790 20.753179 -4.567367 0.000000 0.000000 0.000000 
